<svg width="32" height="32" viewBox="0 0 32 32" fill="none" xmlns="http://www.w3.org/2000/svg">
<path d="M20.377 16.519L26.944 9.953C27.906 8.99 27.906 7.414 26.944 6.451L26.068 5.576C25.105 4.612 23.529 4.612 22.567 5.576L16 12.142L9.433 5.575C8.471 4.612 6.895 4.612 5.932 5.575L5.056 6.45C4.094 7.413 4.094 8.989 5.056 9.952L11.622 16.518L5.056 23.085C4.094 24.048 4.094 25.623 5.056 26.586L5.932 27.462C6.895 28.425 8.471 28.425 9.433 27.462L16 20.896L22.567 27.462C23.529 28.425 25.105 28.425 26.068 27.462L26.944 26.586C27.906 25.623 27.906 24.048 26.944 23.085L20.377 16.519Z" fill="#F91155"/>
</svg>
