<svg width="50" height="50" viewBox="0 0 50 50" fill="none" xmlns="http://www.w3.org/2000/svg">
<path d="M45.281 25.915C50.23 20.911 50.23 12.769 45.281 7.765C42.881 5.337 39.688 4 36.292 4C36.291 4 36.291 4 36.291 4C32.895 4 29.701 5.337 27.3 7.765L25 10.09L22.7 7.765C20.299 5.337 17.106 4 13.709 4C10.313 4 7.12 5.337 4.719 7.765C-0.23 12.769 -0.23 20.911 4.719 25.915L25 46.422L45.281 25.915ZM6.141 9.171C8.163 7.126 10.852 6 13.709 6C16.567 6 19.256 7.126 21.278 9.171L25 12.935L28.722 9.171C30.744 7.126 33.433 6 36.291 6C39.149 6 41.837 7.126 43.859 9.171C48.042 13.4 48.042 20.28 43.859 24.509L25 43.578L6.141 24.509C1.958 20.28 1.958 13.399 6.141 9.171Z" fill="#FF1157"/>
</svg>
