<svg width="48" height="43" viewBox="0 0 48 43" fill="none" xmlns="http://www.w3.org/2000/svg">
<g clip-path="url(#clip0)">
<path d="M44.281 21.915C49.23 16.911 49.23 8.769 44.281 3.765C41.881 1.337 38.688 0 35.292 0C35.291 0 35.291 0 35.291 0C31.895 0 28.701 1.337 26.3 3.765L24 6.09L21.7 3.765C19.299 1.337 16.106 0 12.709 0C9.313 0 6.12 1.337 3.719 3.765C-1.23 8.769 -1.23 16.911 3.719 21.915L24 42.422L44.281 21.915ZM5.141 5.171C7.163 3.126 9.852 2 12.709 2C15.567 2 18.256 3.126 20.278 5.171L24 8.935L27.722 5.171C29.744 3.126 32.433 2 35.291 2C38.149 2 40.837 3.126 42.859 5.171C47.042 9.4 47.042 16.28 42.859 20.509L24 39.578L5.141 20.509C0.958 16.28 0.958 9.399 5.141 5.171Z" fill="#FF1157"/>
<rect x="1" y="16.716" width="19.7224" height="32.9513" transform="rotate(-43.565 1 16.716)" fill="#FF1157"/>
<ellipse cx="13" cy="11.5" rx="12" ry="10.5" fill="#FF1157"/>
<ellipse cx="35" cy="12.5" rx="12" ry="10.5" fill="#FF1157"/>
<rect x="32.8752" y="3" width="19.7224" height="32.9513" transform="rotate(43.9644 32.8752 3)" fill="#FF1157"/>
</g>
<defs>
<clipPath id="clip0">
<path d="M0.00724983 0H47.9927V42.422H0.00724983V0Z" fill="white"/>
</clipPath>
</defs>
</svg>
