<?xml version="1.0" ?><!DOCTYPE svg  PUBLIC '-//W3C//DTD SVG 1.0//EN'  'http://www.w3.org/TR/2001/REC-SVG-20010904/DTD/svg10.dtd'><svg enable-background="new 0 0 512 512" id="Layer_1" version="1.0" viewBox="0 0 512 512" xml:space="preserve" xmlns="http://www.w3.org/2000/svg" xmlns:xlink="http://www.w3.org/1999/xlink"><g><g><g><g><path d="M138.7,120.8c6.7,10.1,13.5,20.2,20.2,30.4c2.5,3.8,5,7.5,7.5,11.3c4.5,6.7,1.3,13.2-4.4,17.6      c-10.5,8.2-21.1,16.4-31.6,24.6c-7.3,5.7-11.5,14.6-10.5,23.9c0.8,7.4,5.2,14,8.8,20.4c21,37.9,52.3,69.8,84.1,98.7      c14.2,12.9,29.3,25.2,45.6,35.3c12.4,7.7,28,19,43,13.1c6.7-2.6,10.5-7.5,14.7-12.9c4.8-6.2,9.6-12.3,14.4-18.5      c3-3.9,5.9-7.9,9.1-11.6c5-5.9,12-4.3,17.5-0.6c18.5,12.3,37.1,24.7,55.6,37c11.1,7.4,22.1,14.7,33.2,22.1      c12.1,8,0.1,21.8-4.9,30.2c-3.9,6.5-7.8,13-11.7,19.4c-3.5,5.9-7.1,11.5-12.7,15.7c-5.7,4.3-12.3,6.4-19.1,7.9      c-1.9,0.4-3.8,0.8-5.6,1.1c-1,0.2-2,0.3-3,0.5c2.3-0.3-1.5,0.2-2.2,0.2c-24.6,2.6-46.6-1.6-70-9.6      c-38.9-13.4-74.2-37.2-106-62.9c-45.3-36.6-87.3-79.3-121.8-126.2C66.3,257.5,46.6,224,36.4,187.4c-3.6-12.8-5.4-23.4-6-35.9      c-0.2-5.1-0.2-10.2,0.1-15.3c0.1-2.2,0.4-4.4,0.6-6.6c0.3-2.6-0.1,0.3,0.2-1.6c0.2-1.2,0.4-2.3,0.6-3.4c2.5-14,8-26.2,20.7-33.8      C64.1,83.8,75.6,76.9,87,70c5.9-3.6,13.8-6,18.6,1.1c3,4.5,6,9.1,9.1,13.6C122.7,96.8,130.7,108.8,138.7,120.8      c5.3,8,18.3,0.5,13-7.6c-6.4-9.7-12.9-19.3-19.3-29c-3.8-5.7-7.6-11.4-11.4-17c-3.5-5.3-7.2-10.2-13.1-13.2      c-15.8-7.8-30,3.9-43,11.7c-13.4,8-27.6,15-37.2,27.7c-7.6,10.1-9.9,23.2-11.4,35.4c-1.3,10.1-1.2,20.4-0.2,30.5      c3,31.4,14.7,61.3,29.6,88.9c24.7,45.6,59.2,85.8,95.5,122.6c37.1,37.5,77.9,72.8,124,98.8c27.9,15.8,58.3,27.8,90.3,31.6      c20.6,2.4,45,1.6,63.8-8.3c14.9-7.9,22.4-23.1,30.7-36.9c7.5-12.5,18.7-25.6,15.7-41c-2.6-13.5-18.7-21-29.1-27.9      c-10.2-6.8-20.4-13.6-30.6-20.4c-9.6-6.4-19.2-12.8-28.9-19.2c-4.6-3-9.1-6.1-13.7-9.1c-8.7-5.8-19.5-5.8-28.5-0.8      c-5.2,2.9-8.6,8.2-12.1,12.8c-4.9,6.2-9.7,12.5-14.6,18.7c-2.9,3.8-6,9.1-10.1,11.8c-6.7,4.5-13.5-0.6-19.4-3.8      c-36.9-20.2-67.5-50-95.9-80.7c-12.9-14-25.1-28.7-35.1-45c-3.1-5-6-10.2-8.8-15.4c-1.5-2.7-3.1-5.3-3.9-8.3      c-1.2-4.6,1.6-9.1,5-11.8c8.1-6.3,16.2-12.6,24.3-18.9c3.2-2.5,6.5-5,9.7-7.6c7.5-5.8,10.9-16.1,9.1-25.3      c-1.9-9.8-10-18.9-15.4-27c-5.4-8-10.7-16.1-16.1-24.1C146.3,105.2,133.3,112.7,138.7,120.8z"/></g></g></g><g><g><path d="M328.6,20.1c0,25.5,0,51,0,76.4c0,4.1,3.4,7.5,7.5,7.5c45.8,0,91.7,0,137.5,0c0.2,0,0.4,0,0.6,0c-2.5-2.5-5-5-7.5-7.5     c0,29.8,0,59.7,0,89.5c2.5-2.5,5-5,7.5-7.5c-45.8,0-91.7,0-137.5,0c-0.2,0-0.4,0-0.6,0c-4.1,0-7.5,3.4-7.5,7.5     c0,25.5,0,51,0,76.4c4.3-1.8,8.5-3.5,12.8-5.3c-35.2-35.3-70.4-70.6-105.6-105.9c-5.1-5.1-10.1-10.2-15.2-15.2     c0,3.5,0,7.1,0,10.6C255.8,111.3,291,76,326.2,40.7c5.1-5.1,10.1-10.2,15.2-15.2c6.8-6.9-3.8-17.5-10.6-10.6     c-35.2,35.3-70.4,70.6-105.6,105.9c-5.1,5.1-10.1,10.2-15.2,15.2c-2.9,2.9-2.9,7.7,0,10.6c35.2,35.3,70.4,70.6,105.6,105.9     c5.1,5.1,10.1,10.2,15.2,15.2c4.6,4.6,12.8,1.2,12.8-5.3c0-25.5,0-51,0-76.4c-2.5,2.5-5,5-7.5,7.5c45.8,0,91.7,0,137.5,0     c0.2,0,0.4,0,0.6,0c4.1,0,7.5-3.4,7.5-7.5c0-29.8,0-59.7,0-89.5c0-4.1-3.4-7.5-7.5-7.5c-45.8,0-91.7,0-137.5,0     c-0.2,0-0.4,0-0.6,0c2.5,2.5,5,5,7.5,7.5c0-25.5,0-51,0-76.4C343.6,10.5,328.6,10.5,328.6,20.1z"/></g></g></g></svg>