<svg width="21" height="12" viewBox="0 0 21 12" fill="none" xmlns="http://www.w3.org/2000/svg">
<path d="M19.5474 0.999993H16.2569C16.1226 0.999992 15.9908 1.0364 15.8755 1.10535C15.7603 1.1743 15.6659 1.27321 15.6024 1.39155C15.6024 1.39155 14.29 3.80848 13.8684 4.62255C12.7344 6.81249 12 6.12499 12 5.10862V1.60416C12 1.31132 11.8837 1.03047 11.6766 0.823397C11.4695 0.616325 11.1887 0.499993 10.8958 0.499993H8.42183C8.08491 0.474943 7.74718 0.53644 7.44072 0.678645C7.13426 0.82085 6.86924 1.03904 6.67083 1.31249C6.67083 1.31249 7.92709 1.10937 7.92709 2.80207C7.92709 3.22181 7.94871 4.4293 7.96841 5.44207C7.97212 5.59132 7.92996 5.73811 7.8476 5.86262C7.76524 5.98714 7.64666 6.08339 7.50786 6.13837C7.36907 6.19336 7.21674 6.20443 7.07145 6.1701C6.92617 6.13577 6.79491 6.05768 6.69541 5.94638C5.68276 4.53797 4.84395 3.01239 4.19721 1.40279C4.14167 1.28239 4.05275 1.18044 3.94101 1.10904C3.82927 1.03765 3.6994 0.9998 3.5668 0.999993C2.8532 0.999993 1.42522 0.999993 0.57719 0.999993C0.494956 0.999433 0.413815 1.01885 0.340739 1.05656C0.267663 1.09428 0.204836 1.14918 0.157655 1.21653C0.110475 1.28389 0.0803517 1.36169 0.0698736 1.44325C0.0593954 1.52482 0.0688757 1.60771 0.0974999 1.6848C1.00529 4.17486 4.91576 12 9.37917 12H11.2578C11.4547 12 11.6434 11.9218 11.7826 11.7826C11.9218 11.6434 12 11.4546 12 11.2578V10.1234C12 9.98111 12.0416 9.84191 12.1198 9.72297C12.1979 9.60404 12.3091 9.51056 12.4398 9.45406C12.5704 9.39756 12.7146 9.38051 12.8548 9.405C12.995 9.4295 13.125 9.49447 13.2287 9.59191L15.4773 11.7046C15.6792 11.8944 15.9459 12 16.223 12H19.1758C20.6 12 20.6 11.0118 19.8235 10.2471C19.277 9.70888 17.3052 7.63042 17.3052 7.63042C17.1363 7.45549 17.0356 7.22592 17.0212 6.9832C17.0068 6.74049 17.0798 6.50064 17.2268 6.30699C17.8642 5.46823 18.9067 4.09524 19.3488 3.50706C19.9531 2.70312 21.0469 0.999993 19.5474 0.999993Z" fill="#577FA8"/>
</svg>
